<svg width="77" height="77" viewBox="0 0 77 77" fill="none" xmlns="http://www.w3.org/2000/svg">
<rect x="10.4906" y="6.08163" width="57.434" height="10.2449" rx="1" stroke="#131A2B" stroke-width="2"/>
<path d="M1.70754 26V72C1.70754 74.2091 3.4984 76 5.70754 76H72C74.2091 76 76 74.2091 76 72V26.9388C76 24.7296 74.2091 22.9388 72 22.9388H55.4811" stroke="#131A2B" stroke-width="2" stroke-linecap="round" stroke-linejoin="round"/>
<path d="M76 25.4898L76 4.99999C76 2.79085 74.2091 0.999996 72 0.999996L6.41509 0.999992C4.20595 0.999992 2.41509 2.79085 2.41509 4.99999L2.41508 17.6803C2.41508 19.8894 4.20595 21.6803 6.41508 21.6803L22.7385 21.6803" stroke="#131A2B" stroke-width="2" stroke-linecap="round" stroke-linejoin="round"/>
<mask id="path-4-inside-1_1_114" fill="white">
<rect x="8.92923" y="39.0505" width="9.61324" height="9.61324" rx="1"/>
</mask>
<rect x="8.92923" y="39.0505" width="9.61324" height="9.61324" rx="1" stroke="#131A2B" stroke-width="4" mask="url(#path-4-inside-1_1_114)"/>
<mask id="path-5-inside-2_1_114" fill="white">
<rect x="8.92923" y="50.275" width="9.61324" height="9.61324" rx="1"/>
</mask>
<rect x="8.92923" y="50.275" width="9.61324" height="9.61324" rx="1" stroke="#131A2B" stroke-width="4" mask="url(#path-5-inside-2_1_114)"/>
<mask id="path-6-inside-3_1_114" fill="white">
<rect x="8.92923" y="61.4995" width="9.61324" height="9.61324" rx="1"/>
</mask>
<rect x="8.92923" y="61.4995" width="9.61324" height="9.61324" rx="1" stroke="#131A2B" stroke-width="4" mask="url(#path-6-inside-3_1_114)"/>
<mask id="path-7-inside-4_1_114" fill="white">
<rect x="8.92923" y="27.826" width="9.61324" height="9.61324" rx="1"/>
</mask>
<rect x="8.92923" y="27.826" width="9.61324" height="9.61324" rx="1" stroke="#131A2B" stroke-width="4" mask="url(#path-7-inside-4_1_114)"/>
<mask id="path-8-inside-5_1_114" fill="white">
<rect x="25.9104" y="39.0505" width="9.61324" height="9.61324" rx="1"/>
</mask>
<rect x="25.9104" y="39.0505" width="9.61324" height="9.61324" rx="1" stroke="#131A2B" stroke-width="4" mask="url(#path-8-inside-5_1_114)"/>
<mask id="path-9-inside-6_1_114" fill="white">
<rect x="25.9104" y="50.275" width="9.61324" height="9.61324" rx="1"/>
</mask>
<rect x="25.9104" y="50.275" width="9.61324" height="9.61324" rx="1" stroke="#131A2B" stroke-width="4" mask="url(#path-9-inside-6_1_114)"/>
<mask id="path-10-inside-7_1_114" fill="white">
<rect x="25.9104" y="61.4995" width="9.61324" height="9.61324" rx="1"/>
</mask>
<rect x="25.9104" y="61.4995" width="9.61324" height="9.61324" rx="1" stroke="#131A2B" stroke-width="4" mask="url(#path-10-inside-7_1_114)"/>
<mask id="path-11-inside-8_1_114" fill="white">
<rect x="25.9104" y="27.826" width="9.61324" height="9.61324" rx="1"/>
</mask>
<rect x="25.9104" y="27.826" width="9.61324" height="9.61324" rx="1" stroke="#131A2B" stroke-width="4" mask="url(#path-11-inside-8_1_114)"/>
<mask id="path-12-inside-9_1_114" fill="white">
<rect x="42.8915" y="39.0505" width="9.61324" height="9.61324" rx="1"/>
</mask>
<rect x="42.8915" y="39.0505" width="9.61324" height="9.61324" rx="1" stroke="#131A2B" stroke-width="4" mask="url(#path-12-inside-9_1_114)"/>
<mask id="path-13-inside-10_1_114" fill="white">
<rect x="42.8915" y="50.275" width="9.61324" height="9.61324" rx="1"/>
</mask>
<rect x="42.8915" y="50.275" width="9.61324" height="9.61324" rx="1" stroke="#131A2B" stroke-width="4" mask="url(#path-13-inside-10_1_114)"/>
<mask id="path-14-inside-11_1_114" fill="white">
<rect x="42.8915" y="61.4995" width="9.61324" height="9.61324" rx="1"/>
</mask>
<rect x="42.8915" y="61.4995" width="9.61324" height="9.61324" rx="1" stroke="#131A2B" stroke-width="4" mask="url(#path-14-inside-11_1_114)"/>
<mask id="path-15-inside-12_1_114" fill="white">
<rect x="42.8915" y="27.826" width="9.61324" height="9.61324" rx="1"/>
</mask>
<rect x="42.8915" y="27.826" width="9.61324" height="9.61324" rx="1" stroke="#131A2B" stroke-width="4" mask="url(#path-15-inside-12_1_114)"/>
<mask id="path-16-inside-13_1_114" fill="white">
<rect x="59.8726" y="39.0505" width="9.61324" height="9.61324" rx="1"/>
</mask>
<rect x="59.8726" y="39.0505" width="9.61324" height="9.61324" rx="1" stroke="#131A2B" stroke-width="4" mask="url(#path-16-inside-13_1_114)"/>
<mask id="path-17-inside-14_1_114" fill="white">
<rect x="59.0189" y="51" width="11.3208" height="19.3878" rx="1"/>
</mask>
<rect x="59.0189" y="51" width="11.3208" height="19.3878" rx="1" stroke="#131A2B" stroke-width="4" mask="url(#path-17-inside-14_1_114)"/>
<mask id="path-18-inside-15_1_114" fill="white">
<rect x="59.8726" y="27.826" width="9.61324" height="9.61324" rx="1"/>
</mask>
<rect x="59.8726" y="27.826" width="9.61324" height="9.61324" rx="1" stroke="#131A2B" stroke-width="4" mask="url(#path-18-inside-15_1_114)"/>
</svg>
